<?xml version="1.0" standalone="no"?>
<!DOCTYPE svg PUBLIC "-//W3C//DTD SVG 20010904//EN"
 "http://www.w3.org/TR/2001/REC-SVG-20010904/DTD/svg10.dtd">
<svg version="1.0" xmlns="http://www.w3.org/2000/svg"
 width="270.000000pt" height="270.000000pt" viewBox="0 0 270.000000 270.000000"
 preserveAspectRatio="xMidYMid meet">

<g transform="translate(0.000000,270.000000) scale(0.100000,-0.100000)"
fill="#000000" stroke="none">
<path d="M1497 2683 c-11 -10 -8 -53 3 -53 6 0 11 60 4 60 0 0 -4 -3 -7 -7z"/>
<path d="M1197 2631 c-6 -27 -11 -30 -73 -40 -60 -11 -67 -10 -80 6 -7 10 -14
21 -14 26 0 4 -5 7 -11 7 -6 0 -9 -6 -6 -14 10 -26 139 -207 144 -202 6 6 63
217 63 234 0 24 -18 12 -23 -17z m-17 -63 c0 -12 -16 -77 -26 -107 -3 -10 -17
4 -40 38 -37 55 -36 66 6 74 47 8 60 7 60 -5z"/>
<path d="M1660 2615 c0 -8 5 -15 10 -15 6 0 10 7 10 15 0 8 -4 15 -10 15 -5 0
-10 -7 -10 -15z"/>
<path d="M803 2548 c-22 -11 -39 -38 -24 -38 5 0 14 7 21 15 17 21 63 19 83
-3 20 -22 22 -75 5 -89 -7 -6 -26 -15 -43 -21 l-30 -10 31 -1 c67 -2 99 85 49
134 -25 26 -56 31 -92 13z"/>
<path d="M1472 2519 c2 -6 8 -10 13 -10 5 0 11 4 13 10 2 6 -4 11 -13 11 -9 0
-15 -5 -13 -11z"/>
<path d="M1622 2489 c2 -6 8 -10 13 -10 5 0 11 4 13 10 2 6 -4 11 -13 11 -9 0
-15 -5 -13 -11z"/>
<path d="M1948 2458 c-14 -24 -28 -51 -31 -60 -9 -25 24 -60 56 -60 16 0 27
-7 29 -17 2 -10 18 8 41 47 21 34 37 68 35 74 -3 7 -17 -9 -32 -34 -28 -49
-52 -64 -85 -53 -33 10 -33 36 -1 87 33 54 34 58 21 58 -5 0 -20 -19 -33 -42z"/>
<path d="M602 2435 c-58 -25 -68 -80 -23 -126 36 -35 70 -37 107 -6 35 30 37
77 5 111 -29 31 -51 36 -89 21z m66 -22 c32 -28 38 -67 13 -92 -27 -27 -59
-27 -88 1 -30 28 -29 62 3 87 32 26 46 26 72 4z"/>
<path d="M2151 2294 c-29 -37 -27 -79 5 -109 36 -33 69 -31 105 4 35 36 37 69
4 105 -33 36 -86 36 -114 0z m101 -11 c24 -21 23 -58 -2 -83 -55 -55 -136 24
-83 82 20 22 61 23 85 1z"/>
<path d="M438 2227 c42 -43 52 -73 30 -95 -19 -19 -33 -15 -78 23 -61 51 -73
43 -17 -11 50 -50 53 -55 37 -85 -16 -28 -41 -23 -89 17 -23 20 -45 33 -49 30
-9 -9 67 -74 96 -82 29 -8 62 20 62 52 0 16 7 24 23 26 13 2 28 15 37 35 8 18
21 33 29 35 13 3 -96 98 -114 98 -5 0 10 -19 33 -43z"/>
<path d="M2090 2140 c20 -13 50 -13 50 0 0 6 -15 10 -32 10 -25 0 -29 -3 -18
-10z"/>
<path d="M1251 2130 c-314 -43 -558 -248 -657 -550 -25 -76 -28 -100 -28 -225
-1 -159 12 -222 70 -345 124 -264 378 -433 670 -447 228 -11 427 62 588 215
230 222 302 555 186 865 -64 171 -233 346 -408 424 -124 55 -294 80 -421 63z"/>
<path d="M2340 2083 c-36 -25 -59 -48 -53 -50 13 -5 123 74 123 88 0 13 -1 13
-70 -38z"/>
<path d="M2230 1995 c0 -8 5 -15 10 -15 6 0 10 7 10 15 0 8 -4 15 -10 15 -5 0
-10 -7 -10 -15z"/>
<path d="M2470 1995 c0 -3 9 -14 20 -25 11 -11 20 -29 20 -40 0 -29 -36 -60
-69 -60 -33 0 -61 30 -61 64 0 15 -3 17 -11 9 -15 -15 6 -70 32 -83 83 -45
163 52 101 123 -14 16 -32 23 -32 12z"/>
<path d="M110 1982 c0 -5 18 -17 40 -27 l40 -18 -25 -23 c-54 -50 -16 -134 61
-134 41 0 78 41 72 82 -3 20 0 28 11 29 14 1 -173 97 -191 98 -5 1 -8 -3 -8
-7z m148 -78 c26 -18 30 -65 6 -88 -8 -9 -28 -16 -44 -16 -36 0 -60 23 -60 57
0 54 52 79 98 47z"/>
<path d="M2527 1743 c-62 -19 -78 -48 -53 -100 21 -45 32 -37 15 11 -11 32
-11 38 3 53 16 15 18 14 29 -13 29 -68 79 -87 101 -39 10 22 8 30 -11 55 -12
17 -19 35 -16 40 8 13 -9 11 -68 -7z m71 -41 c18 -23 11 -46 -16 -50 -17 -3
-25 4 -36 30 -8 18 -12 36 -9 41 7 11 46 -2 61 -21z"/>
<path d="M75 1673 c-12 -11 -15 -26 -12 -49 4 -21 1 -34 -6 -37 -20 -7 -4 -15
60 -28 50 -10 64 -10 77 0 20 17 32 79 17 94 -8 8 -11 2 -11 -24 0 -36 -14
-59 -37 -59 -9 0 -13 15 -13 48 0 68 -36 95 -75 55z m58 -24 c12 -20 1 -69
-16 -69 -30 0 -52 62 -30 84 11 10 35 3 46 -15z"/>
<path d="M2528 1479 c-21 -12 -24 -69 -6 -87 9 -9 9 -15 0 -24 -15 -15 -16
-64 -2 -73 8 -5 7 -11 -1 -21 -10 -12 0 -14 64 -14 42 0 79 5 82 10 4 6 -13
10 -45 10 -64 0 -90 13 -90 45 0 31 26 45 84 45 25 0 46 5 46 10 0 6 -24 10
-54 10 -36 0 -60 5 -70 16 -38 37 -10 64 66 64 32 0 58 4 58 10 0 13 -110 12
-132 -1z"/>
<path d="M30 1410 c0 -5 24 -10 54 -10 63 0 89 -18 84 -59 -3 -25 -6 -26 -70
-29 -86 -4 -89 -22 -5 -22 49 0 68 4 80 18 19 21 22 49 7 72 -5 9 -5 19 2 27
8 10 -6 13 -71 13 -47 0 -81 -4 -81 -10z"/>
<path d="M234 1361 c1 -22 4 -42 7 -45 8 -8 20 64 13 76 -12 19 -20 6 -20 -31z"/>
<path d="M180 1150 c16 -30 9 -74 -12 -78 -13 -3 -18 3 -18 20 0 41 -28 70
-63 66 -26 -2 -33 -8 -35 -30 -2 -15 2 -37 9 -50 7 -13 12 -29 11 -35 -3 -14
33 -9 98 11 26 8 36 17 38 37 4 31 -14 79 -28 79 -7 0 -7 -6 0 -20z m-62 -23
c6 -6 13 -24 17 -40 6 -22 4 -27 -11 -27 -26 0 -54 30 -54 57 0 26 30 32 48
10z"/>
<path d="M2493 1126 c4 -22 1 -36 -6 -39 -13 -4 41 -21 106 -33 23 -4 37 -2
37 4 0 6 -19 13 -42 17 -63 11 -78 21 -78 55 0 17 -5 30 -11 30 -8 0 -10 -12
-6 -34z"/>
<path d="M172 907 c-35 -18 -60 -36 -56 -39 3 -4 24 2 45 12 45 24 82 26 99 5
20 -24 7 -49 -39 -72 -25 -13 -49 -27 -55 -33 -17 -17 11 -12 54 10 49 25 62
25 85 0 25 -27 14 -45 -45 -75 -27 -14 -50 -30 -50 -35 0 -15 116 46 123 65 9
23 -9 62 -32 70 -12 4 -18 12 -14 21 9 24 -6 62 -27 69 -11 4 -17 12 -13 21 7
20 -4 17 -75 -19z"/>
<path d="M2430 918 c-21 -23 -26 -68 -10 -98 15 -27 71 -44 103 -29 27 12 47
47 47 83 0 58 -97 89 -140 44z m85 0 c45 -20 47 -82 4 -107 -22 -12 -29 -12
-55 0 -40 19 -47 79 -12 103 27 19 30 19 63 4z"/>
<path d="M2257 792 c-25 -27 -21 -47 14 -76 19 -16 29 -32 25 -41 -6 -17 9
-21 19 -5 3 5 30 -6 61 -27 30 -20 57 -33 61 -30 7 8 11 5 -49 46 -49 33 -57
48 -36 69 18 18 -3 15 -23 -4 -16 -14 -20 -14 -43 1 -28 18 -33 44 -14 63 6 6
9 14 6 17 -2 3 -12 -3 -21 -13z"/>
<path d="M375 608 c-31 -17 -45 -39 -45 -72 1 -80 98 -110 144 -44 24 34 19
66 -13 99 -31 31 -53 35 -86 17z m73 -24 c32 -22 26 -70 -11 -98 -26 -19 -30
-19 -55 -5 -37 20 -43 80 -10 103 28 20 48 20 76 0z"/>
<path d="M2201 554 c-16 -21 -18 -30 -10 -46 11 -20 18 -21 92 -2 23 5 27 3
27 -14 0 -11 -12 -30 -26 -41 -31 -24 -10 -29 24 -5 26 18 31 71 6 81 -8 3
-33 0 -55 -7 -55 -19 -72 -1 -34 34 20 19 23 26 12 26 -8 0 -25 -12 -36 -26z"/>
<path d="M576 434 c-19 -19 -20 -16 0 -58 17 -34 14 -66 -6 -66 -6 0 -22 12
-37 28 -20 22 -25 23 -22 8 2 -10 16 -28 30 -38 22 -16 30 -18 48 -9 25 14 27
41 6 82 -25 48 8 71 39 27 9 -12 19 -18 23 -14 8 8 -41 56 -57 56 -5 0 -16 -7
-24 -16z"/>
<path d="M2042 414 c-12 -8 -22 -22 -22 -31 0 -9 -6 -13 -15 -9 -8 3 -15 1
-15 -5 0 -14 81 -119 92 -119 10 0 5 12 -29 56 -28 38 -30 80 -4 94 31 16 39
13 78 -40 47 -63 64 -55 17 9 -45 64 -64 72 -102 45z"/>
<path d="M889 253 c-24 -59 -46 -111 -48 -116 -2 -5 2 -8 9 -5 7 2 32 53 56
113 49 122 47 115 35 115 -5 0 -28 -48 -52 -107z"/>
<path d="M1830 293 c-20 -8 -50 -34 -50 -45 0 -5 14 2 30 14 24 17 35 20 47
12 27 -17 25 -28 -7 -42 -56 -25 -64 -86 -14 -98 19 -5 32 0 52 19 15 13 33
22 39 20 18 -7 -24 88 -49 110 -21 18 -24 19 -48 10z m66 -78 c9 -22 -23 -65
-47 -65 -33 0 -36 30 -5 57 32 27 44 29 52 8z"/>
<path d="M1420 216 c0 -14 -8 -30 -17 -35 -17 -10 -17 -10 -1 -11 13 0 18 -13
24 -60 7 -67 22 -85 59 -76 33 8 32 25 -2 23 -29 -2 -40 19 -42 81 -1 28 2 32
24 32 14 0 25 5 25 10 0 6 -11 10 -25 10 -18 0 -25 5 -25 19 0 11 -4 23 -10
26 -6 3 -10 -5 -10 -19z"/>
<path d="M1640 216 c-6 -8 -18 -12 -27 -9 -11 5 -14 1 -10 -13 4 -10 11 -41
18 -69 15 -62 35 -88 23 -30 -14 73 -11 98 14 111 33 16 38 24 15 24 -11 0
-26 -6 -33 -14z"/>
<path d="M1036 211 c-5 -7 4 -11 23 -11 28 0 61 -22 61 -40 0 -5 -23 -10 -51
-12 -40 -2 -55 -8 -66 -25 -13 -19 -12 -24 7 -43 17 -17 30 -21 56 -17 20 4
34 1 37 -6 6 -17 27 61 27 99 0 17 -6 37 -13 43 -21 17 -74 25 -81 12z m57
-79 c16 -7 16 -9 1 -30 -20 -28 -67 -27 -72 2 -6 30 29 44 71 28z"/>
</g>
</svg>
